%TF.GenerationSoftware,KiCad,Pcbnew,7.0.2-0*%
%TF.CreationDate,2024-01-02T14:27:33-05:00*%
%TF.ProjectId,GTV,4754562e-6b69-4636-9164-5f7063625858,rev?*%
%TF.SameCoordinates,Original*%
%TF.FileFunction,Drillmap*%
%TF.FilePolarity,Positive*%
%FSLAX45Y45*%
G04 Gerber Fmt 4.5, Leading zero omitted, Abs format (unit mm)*
G04 Created by KiCad (PCBNEW 7.0.2-0) date 2024-01-02 14:27:33*
%MOMM*%
%LPD*%
G01*
G04 APERTURE LIST*
%ADD10C,0.100000*%
%ADD11C,0.200000*%
G04 APERTURE END LIST*
D10*
X15780000Y-10759800D02*
G75*
G03*
X15850000Y-10689800I0J70000D01*
G01*
X13740000Y-10760000D02*
X15780000Y-10759800D01*
X18960000Y-10759800D02*
X19840000Y-10760000D01*
X13670000Y-10280000D02*
X13670000Y-10690000D01*
X18890000Y-10500000D02*
G75*
G03*
X18820000Y-10430000I-70000J0D01*
G01*
X18890000Y-10500000D02*
X18890000Y-10689800D01*
X18820000Y-10430000D02*
X15920000Y-10430000D01*
X13670000Y-10280000D02*
G75*
G03*
X13600000Y-10210000I-70000J0D01*
G01*
X19980000Y-10220000D02*
X20770000Y-10220000D01*
X18890000Y-10689800D02*
G75*
G03*
X18960000Y-10759800I70000J0D01*
G01*
X12810000Y-11930502D02*
X20770000Y-11930000D01*
X12739997Y-11860502D02*
G75*
G03*
X12810000Y-11930502I70003J3D01*
G01*
X13670000Y-10690000D02*
G75*
G03*
X13740000Y-10760000I70000J0D01*
G01*
X20770000Y-11930000D02*
G75*
G03*
X20840000Y-11860000I0J70000D01*
G01*
X12810000Y-10210000D02*
G75*
G03*
X12740000Y-10280000I0J-70000D01*
G01*
X15850000Y-10689800D02*
X15850000Y-10500000D01*
X12740000Y-11860502D02*
X12740000Y-10280000D01*
X19840503Y-10760003D02*
G75*
G03*
X19910503Y-10690000I-3J70003D01*
G01*
X20840000Y-10290000D02*
G75*
G03*
X20770000Y-10220000I-70000J0D01*
G01*
X15920000Y-10430000D02*
G75*
G03*
X15850000Y-10500000I0J-70000D01*
G01*
X19980000Y-10220000D02*
G75*
G03*
X19910000Y-10290000I0J-70000D01*
G01*
X13350000Y-11140000D02*
G75*
G03*
X13350000Y-11140000I-110000J0D01*
G01*
X19910000Y-10690000D02*
X19910000Y-10290000D01*
X20840000Y-10290000D02*
X20840000Y-11860000D01*
X12810000Y-10210000D02*
X13600000Y-10210000D01*
X20450000Y-11135000D02*
G75*
G03*
X20450000Y-11135000I-110000J0D01*
G01*
D11*
X12982619Y-12248026D02*
X12982619Y-12048026D01*
X12982619Y-12048026D02*
X13030238Y-12048026D01*
X13030238Y-12048026D02*
X13058809Y-12057550D01*
X13058809Y-12057550D02*
X13077857Y-12076598D01*
X13077857Y-12076598D02*
X13087381Y-12095645D01*
X13087381Y-12095645D02*
X13096905Y-12133740D01*
X13096905Y-12133740D02*
X13096905Y-12162312D01*
X13096905Y-12162312D02*
X13087381Y-12200407D01*
X13087381Y-12200407D02*
X13077857Y-12219455D01*
X13077857Y-12219455D02*
X13058809Y-12238502D01*
X13058809Y-12238502D02*
X13030238Y-12248026D01*
X13030238Y-12248026D02*
X12982619Y-12248026D01*
X13182619Y-12248026D02*
X13182619Y-12114693D01*
X13182619Y-12152788D02*
X13192143Y-12133740D01*
X13192143Y-12133740D02*
X13201667Y-12124217D01*
X13201667Y-12124217D02*
X13220714Y-12114693D01*
X13220714Y-12114693D02*
X13239762Y-12114693D01*
X13306428Y-12248026D02*
X13306428Y-12114693D01*
X13306428Y-12048026D02*
X13296905Y-12057550D01*
X13296905Y-12057550D02*
X13306428Y-12067074D01*
X13306428Y-12067074D02*
X13315952Y-12057550D01*
X13315952Y-12057550D02*
X13306428Y-12048026D01*
X13306428Y-12048026D02*
X13306428Y-12067074D01*
X13430238Y-12248026D02*
X13411190Y-12238502D01*
X13411190Y-12238502D02*
X13401667Y-12219455D01*
X13401667Y-12219455D02*
X13401667Y-12048026D01*
X13535000Y-12248026D02*
X13515952Y-12238502D01*
X13515952Y-12238502D02*
X13506428Y-12219455D01*
X13506428Y-12219455D02*
X13506428Y-12048026D01*
X13763571Y-12248026D02*
X13763571Y-12048026D01*
X13763571Y-12048026D02*
X13830238Y-12190883D01*
X13830238Y-12190883D02*
X13896905Y-12048026D01*
X13896905Y-12048026D02*
X13896905Y-12248026D01*
X14077857Y-12248026D02*
X14077857Y-12143264D01*
X14077857Y-12143264D02*
X14068333Y-12124217D01*
X14068333Y-12124217D02*
X14049286Y-12114693D01*
X14049286Y-12114693D02*
X14011190Y-12114693D01*
X14011190Y-12114693D02*
X13992143Y-12124217D01*
X14077857Y-12238502D02*
X14058809Y-12248026D01*
X14058809Y-12248026D02*
X14011190Y-12248026D01*
X14011190Y-12248026D02*
X13992143Y-12238502D01*
X13992143Y-12238502D02*
X13982619Y-12219455D01*
X13982619Y-12219455D02*
X13982619Y-12200407D01*
X13982619Y-12200407D02*
X13992143Y-12181360D01*
X13992143Y-12181360D02*
X14011190Y-12171836D01*
X14011190Y-12171836D02*
X14058809Y-12171836D01*
X14058809Y-12171836D02*
X14077857Y-12162312D01*
X14173095Y-12114693D02*
X14173095Y-12314693D01*
X14173095Y-12124217D02*
X14192143Y-12114693D01*
X14192143Y-12114693D02*
X14230238Y-12114693D01*
X14230238Y-12114693D02*
X14249286Y-12124217D01*
X14249286Y-12124217D02*
X14258809Y-12133740D01*
X14258809Y-12133740D02*
X14268333Y-12152788D01*
X14268333Y-12152788D02*
X14268333Y-12209931D01*
X14268333Y-12209931D02*
X14258809Y-12228979D01*
X14258809Y-12228979D02*
X14249286Y-12238502D01*
X14249286Y-12238502D02*
X14230238Y-12248026D01*
X14230238Y-12248026D02*
X14192143Y-12248026D01*
X14192143Y-12248026D02*
X14173095Y-12238502D01*
X14354048Y-12228979D02*
X14363571Y-12238502D01*
X14363571Y-12238502D02*
X14354048Y-12248026D01*
X14354048Y-12248026D02*
X14344524Y-12238502D01*
X14344524Y-12238502D02*
X14354048Y-12228979D01*
X14354048Y-12228979D02*
X14354048Y-12248026D01*
X14354048Y-12124217D02*
X14363571Y-12133740D01*
X14363571Y-12133740D02*
X14354048Y-12143264D01*
X14354048Y-12143264D02*
X14344524Y-12133740D01*
X14344524Y-12133740D02*
X14354048Y-12124217D01*
X14354048Y-12124217D02*
X14354048Y-12143264D01*
M02*
