G04 #@! TF.GenerationSoftware,KiCad,Pcbnew,7.0.2-0*
G04 #@! TF.CreationDate,2024-01-02T14:26:46-05:00*
G04 #@! TF.ProjectId,GTV,4754562e-6b69-4636-9164-5f7063625858,rev?*
G04 #@! TF.SameCoordinates,Original*
G04 #@! TF.FileFunction,Legend,Bot*
G04 #@! TF.FilePolarity,Positive*
%FSLAX46Y46*%
G04 Gerber Fmt 4.6, Leading zero omitted, Abs format (unit mm)*
G04 Created by KiCad (PCBNEW 7.0.2-0) date 2024-01-02 14:26:46*
%MOMM*%
%LPD*%
G01*
G04 APERTURE LIST*
G04 Aperture macros list*
%AMRoundRect*
0 Rectangle with rounded corners*
0 $1 Rounding radius*
0 $2 $3 $4 $5 $6 $7 $8 $9 X,Y pos of 4 corners*
0 Add a 4 corners polygon primitive as box body*
4,1,4,$2,$3,$4,$5,$6,$7,$8,$9,$2,$3,0*
0 Add four circle primitives for the rounded corners*
1,1,$1+$1,$2,$3*
1,1,$1+$1,$4,$5*
1,1,$1+$1,$6,$7*
1,1,$1+$1,$8,$9*
0 Add four rect primitives between the rounded corners*
20,1,$1+$1,$2,$3,$4,$5,0*
20,1,$1+$1,$4,$5,$6,$7,0*
20,1,$1+$1,$6,$7,$8,$9,0*
20,1,$1+$1,$8,$9,$2,$3,0*%
G04 Aperture macros list end*
%ADD10C,0.150000*%
%ADD11C,0.120000*%
%ADD12R,1.700000X1.700000*%
%ADD13O,1.700000X1.700000*%
%ADD14RoundRect,0.250000X-0.350000X-0.625000X0.350000X-0.625000X0.350000X0.625000X-0.350000X0.625000X0*%
%ADD15O,1.200000X1.750000*%
%ADD16RoundRect,0.250000X0.625000X-0.350000X0.625000X0.350000X-0.625000X0.350000X-0.625000X-0.350000X0*%
%ADD17O,1.750000X1.200000*%
G04 APERTURE END LIST*
D10*
X178109523Y-108630000D02*
X177966666Y-108677619D01*
X177966666Y-108677619D02*
X177728571Y-108677619D01*
X177728571Y-108677619D02*
X177633333Y-108630000D01*
X177633333Y-108630000D02*
X177585714Y-108582380D01*
X177585714Y-108582380D02*
X177538095Y-108487142D01*
X177538095Y-108487142D02*
X177538095Y-108391904D01*
X177538095Y-108391904D02*
X177585714Y-108296666D01*
X177585714Y-108296666D02*
X177633333Y-108249047D01*
X177633333Y-108249047D02*
X177728571Y-108201428D01*
X177728571Y-108201428D02*
X177919047Y-108153809D01*
X177919047Y-108153809D02*
X178014285Y-108106190D01*
X178014285Y-108106190D02*
X178061904Y-108058571D01*
X178061904Y-108058571D02*
X178109523Y-107963333D01*
X178109523Y-107963333D02*
X178109523Y-107868095D01*
X178109523Y-107868095D02*
X178061904Y-107772857D01*
X178061904Y-107772857D02*
X178014285Y-107725238D01*
X178014285Y-107725238D02*
X177919047Y-107677619D01*
X177919047Y-107677619D02*
X177680952Y-107677619D01*
X177680952Y-107677619D02*
X177538095Y-107725238D01*
X176728571Y-108630000D02*
X176823809Y-108677619D01*
X176823809Y-108677619D02*
X177014285Y-108677619D01*
X177014285Y-108677619D02*
X177109523Y-108630000D01*
X177109523Y-108630000D02*
X177157142Y-108534761D01*
X177157142Y-108534761D02*
X177157142Y-108153809D01*
X177157142Y-108153809D02*
X177109523Y-108058571D01*
X177109523Y-108058571D02*
X177014285Y-108010952D01*
X177014285Y-108010952D02*
X176823809Y-108010952D01*
X176823809Y-108010952D02*
X176728571Y-108058571D01*
X176728571Y-108058571D02*
X176680952Y-108153809D01*
X176680952Y-108153809D02*
X176680952Y-108249047D01*
X176680952Y-108249047D02*
X177157142Y-108344285D01*
X176252380Y-108010952D02*
X176252380Y-108677619D01*
X176252380Y-108106190D02*
X176204761Y-108058571D01*
X176204761Y-108058571D02*
X176109523Y-108010952D01*
X176109523Y-108010952D02*
X175966666Y-108010952D01*
X175966666Y-108010952D02*
X175871428Y-108058571D01*
X175871428Y-108058571D02*
X175823809Y-108153809D01*
X175823809Y-108153809D02*
X175823809Y-108677619D01*
X175395237Y-108630000D02*
X175299999Y-108677619D01*
X175299999Y-108677619D02*
X175109523Y-108677619D01*
X175109523Y-108677619D02*
X175014285Y-108630000D01*
X175014285Y-108630000D02*
X174966666Y-108534761D01*
X174966666Y-108534761D02*
X174966666Y-108487142D01*
X174966666Y-108487142D02*
X175014285Y-108391904D01*
X175014285Y-108391904D02*
X175109523Y-108344285D01*
X175109523Y-108344285D02*
X175252380Y-108344285D01*
X175252380Y-108344285D02*
X175347618Y-108296666D01*
X175347618Y-108296666D02*
X175395237Y-108201428D01*
X175395237Y-108201428D02*
X175395237Y-108153809D01*
X175395237Y-108153809D02*
X175347618Y-108058571D01*
X175347618Y-108058571D02*
X175252380Y-108010952D01*
X175252380Y-108010952D02*
X175109523Y-108010952D01*
X175109523Y-108010952D02*
X175014285Y-108058571D01*
X174395237Y-108677619D02*
X174490475Y-108630000D01*
X174490475Y-108630000D02*
X174538094Y-108582380D01*
X174538094Y-108582380D02*
X174585713Y-108487142D01*
X174585713Y-108487142D02*
X174585713Y-108201428D01*
X174585713Y-108201428D02*
X174538094Y-108106190D01*
X174538094Y-108106190D02*
X174490475Y-108058571D01*
X174490475Y-108058571D02*
X174395237Y-108010952D01*
X174395237Y-108010952D02*
X174252380Y-108010952D01*
X174252380Y-108010952D02*
X174157142Y-108058571D01*
X174157142Y-108058571D02*
X174109523Y-108106190D01*
X174109523Y-108106190D02*
X174061904Y-108201428D01*
X174061904Y-108201428D02*
X174061904Y-108487142D01*
X174061904Y-108487142D02*
X174109523Y-108582380D01*
X174109523Y-108582380D02*
X174157142Y-108630000D01*
X174157142Y-108630000D02*
X174252380Y-108677619D01*
X174252380Y-108677619D02*
X174395237Y-108677619D01*
X173633332Y-108677619D02*
X173633332Y-108010952D01*
X173633332Y-108201428D02*
X173585713Y-108106190D01*
X173585713Y-108106190D02*
X173538094Y-108058571D01*
X173538094Y-108058571D02*
X173442856Y-108010952D01*
X173442856Y-108010952D02*
X173347618Y-108010952D01*
X172347617Y-107677619D02*
X171728570Y-107677619D01*
X171728570Y-107677619D02*
X172061903Y-108058571D01*
X172061903Y-108058571D02*
X171919046Y-108058571D01*
X171919046Y-108058571D02*
X171823808Y-108106190D01*
X171823808Y-108106190D02*
X171776189Y-108153809D01*
X171776189Y-108153809D02*
X171728570Y-108249047D01*
X171728570Y-108249047D02*
X171728570Y-108487142D01*
X171728570Y-108487142D02*
X171776189Y-108582380D01*
X171776189Y-108582380D02*
X171823808Y-108630000D01*
X171823808Y-108630000D02*
X171919046Y-108677619D01*
X171919046Y-108677619D02*
X172204760Y-108677619D01*
X172204760Y-108677619D02*
X172299998Y-108630000D01*
X172299998Y-108630000D02*
X172347617Y-108582380D01*
X170680950Y-107772857D02*
X170490474Y-107630000D01*
X170490474Y-107630000D02*
X170299998Y-107772857D01*
X185052380Y-108125904D02*
X185090476Y-108164000D01*
X185090476Y-108164000D02*
X185204761Y-108202095D01*
X185204761Y-108202095D02*
X185280952Y-108202095D01*
X185280952Y-108202095D02*
X185395238Y-108164000D01*
X185395238Y-108164000D02*
X185471428Y-108087809D01*
X185471428Y-108087809D02*
X185509523Y-108011619D01*
X185509523Y-108011619D02*
X185547619Y-107859238D01*
X185547619Y-107859238D02*
X185547619Y-107744952D01*
X185547619Y-107744952D02*
X185509523Y-107592571D01*
X185509523Y-107592571D02*
X185471428Y-107516380D01*
X185471428Y-107516380D02*
X185395238Y-107440190D01*
X185395238Y-107440190D02*
X185280952Y-107402095D01*
X185280952Y-107402095D02*
X185204761Y-107402095D01*
X185204761Y-107402095D02*
X185090476Y-107440190D01*
X185090476Y-107440190D02*
X185052380Y-107478285D01*
X184328571Y-108202095D02*
X184709523Y-108202095D01*
X184709523Y-108202095D02*
X184709523Y-107402095D01*
X184061904Y-108202095D02*
X184061904Y-107402095D01*
X183604761Y-108202095D02*
X183947619Y-107744952D01*
X183604761Y-107402095D02*
X184061904Y-107859238D01*
X201154762Y-110097619D02*
X201154762Y-109097619D01*
X201154762Y-109097619D02*
X200821429Y-109811904D01*
X200821429Y-109811904D02*
X200488096Y-109097619D01*
X200488096Y-109097619D02*
X200488096Y-110097619D01*
X199869048Y-110097619D02*
X199964286Y-110050000D01*
X199964286Y-110050000D02*
X200011905Y-110002380D01*
X200011905Y-110002380D02*
X200059524Y-109907142D01*
X200059524Y-109907142D02*
X200059524Y-109621428D01*
X200059524Y-109621428D02*
X200011905Y-109526190D01*
X200011905Y-109526190D02*
X199964286Y-109478571D01*
X199964286Y-109478571D02*
X199869048Y-109430952D01*
X199869048Y-109430952D02*
X199726191Y-109430952D01*
X199726191Y-109430952D02*
X199630953Y-109478571D01*
X199630953Y-109478571D02*
X199583334Y-109526190D01*
X199583334Y-109526190D02*
X199535715Y-109621428D01*
X199535715Y-109621428D02*
X199535715Y-109907142D01*
X199535715Y-109907142D02*
X199583334Y-110002380D01*
X199583334Y-110002380D02*
X199630953Y-110050000D01*
X199630953Y-110050000D02*
X199726191Y-110097619D01*
X199726191Y-110097619D02*
X199869048Y-110097619D01*
X199250000Y-109430952D02*
X198869048Y-109430952D01*
X199107143Y-109097619D02*
X199107143Y-109954761D01*
X199107143Y-109954761D02*
X199059524Y-110050000D01*
X199059524Y-110050000D02*
X198964286Y-110097619D01*
X198964286Y-110097619D02*
X198869048Y-110097619D01*
X198392857Y-110097619D02*
X198488095Y-110050000D01*
X198488095Y-110050000D02*
X198535714Y-110002380D01*
X198535714Y-110002380D02*
X198583333Y-109907142D01*
X198583333Y-109907142D02*
X198583333Y-109621428D01*
X198583333Y-109621428D02*
X198535714Y-109526190D01*
X198535714Y-109526190D02*
X198488095Y-109478571D01*
X198488095Y-109478571D02*
X198392857Y-109430952D01*
X198392857Y-109430952D02*
X198250000Y-109430952D01*
X198250000Y-109430952D02*
X198154762Y-109478571D01*
X198154762Y-109478571D02*
X198107143Y-109526190D01*
X198107143Y-109526190D02*
X198059524Y-109621428D01*
X198059524Y-109621428D02*
X198059524Y-109907142D01*
X198059524Y-109907142D02*
X198107143Y-110002380D01*
X198107143Y-110002380D02*
X198154762Y-110050000D01*
X198154762Y-110050000D02*
X198250000Y-110097619D01*
X198250000Y-110097619D02*
X198392857Y-110097619D01*
X197630952Y-110097619D02*
X197630952Y-109430952D01*
X197630952Y-109621428D02*
X197583333Y-109526190D01*
X197583333Y-109526190D02*
X197535714Y-109478571D01*
X197535714Y-109478571D02*
X197440476Y-109430952D01*
X197440476Y-109430952D02*
X197345238Y-109430952D01*
X199916666Y-111431904D02*
X199440476Y-111431904D01*
X200011904Y-111717619D02*
X199678571Y-110717619D01*
X199678571Y-110717619D02*
X199345238Y-111717619D01*
X198297619Y-110670000D02*
X199154761Y-111955714D01*
X197440476Y-111717619D02*
X198011904Y-111717619D01*
X197726190Y-111717619D02*
X197726190Y-110717619D01*
X197726190Y-110717619D02*
X197821428Y-110860476D01*
X197821428Y-110860476D02*
X197916666Y-110955714D01*
X197916666Y-110955714D02*
X198011904Y-111003333D01*
X206809523Y-107030000D02*
X206666666Y-107077619D01*
X206666666Y-107077619D02*
X206428571Y-107077619D01*
X206428571Y-107077619D02*
X206333333Y-107030000D01*
X206333333Y-107030000D02*
X206285714Y-106982380D01*
X206285714Y-106982380D02*
X206238095Y-106887142D01*
X206238095Y-106887142D02*
X206238095Y-106791904D01*
X206238095Y-106791904D02*
X206285714Y-106696666D01*
X206285714Y-106696666D02*
X206333333Y-106649047D01*
X206333333Y-106649047D02*
X206428571Y-106601428D01*
X206428571Y-106601428D02*
X206619047Y-106553809D01*
X206619047Y-106553809D02*
X206714285Y-106506190D01*
X206714285Y-106506190D02*
X206761904Y-106458571D01*
X206761904Y-106458571D02*
X206809523Y-106363333D01*
X206809523Y-106363333D02*
X206809523Y-106268095D01*
X206809523Y-106268095D02*
X206761904Y-106172857D01*
X206761904Y-106172857D02*
X206714285Y-106125238D01*
X206714285Y-106125238D02*
X206619047Y-106077619D01*
X206619047Y-106077619D02*
X206380952Y-106077619D01*
X206380952Y-106077619D02*
X206238095Y-106125238D01*
X205428571Y-107030000D02*
X205523809Y-107077619D01*
X205523809Y-107077619D02*
X205714285Y-107077619D01*
X205714285Y-107077619D02*
X205809523Y-107030000D01*
X205809523Y-107030000D02*
X205857142Y-106934761D01*
X205857142Y-106934761D02*
X205857142Y-106553809D01*
X205857142Y-106553809D02*
X205809523Y-106458571D01*
X205809523Y-106458571D02*
X205714285Y-106410952D01*
X205714285Y-106410952D02*
X205523809Y-106410952D01*
X205523809Y-106410952D02*
X205428571Y-106458571D01*
X205428571Y-106458571D02*
X205380952Y-106553809D01*
X205380952Y-106553809D02*
X205380952Y-106649047D01*
X205380952Y-106649047D02*
X205857142Y-106744285D01*
X204952380Y-106410952D02*
X204952380Y-107077619D01*
X204952380Y-106506190D02*
X204904761Y-106458571D01*
X204904761Y-106458571D02*
X204809523Y-106410952D01*
X204809523Y-106410952D02*
X204666666Y-106410952D01*
X204666666Y-106410952D02*
X204571428Y-106458571D01*
X204571428Y-106458571D02*
X204523809Y-106553809D01*
X204523809Y-106553809D02*
X204523809Y-107077619D01*
X204095237Y-107030000D02*
X203999999Y-107077619D01*
X203999999Y-107077619D02*
X203809523Y-107077619D01*
X203809523Y-107077619D02*
X203714285Y-107030000D01*
X203714285Y-107030000D02*
X203666666Y-106934761D01*
X203666666Y-106934761D02*
X203666666Y-106887142D01*
X203666666Y-106887142D02*
X203714285Y-106791904D01*
X203714285Y-106791904D02*
X203809523Y-106744285D01*
X203809523Y-106744285D02*
X203952380Y-106744285D01*
X203952380Y-106744285D02*
X204047618Y-106696666D01*
X204047618Y-106696666D02*
X204095237Y-106601428D01*
X204095237Y-106601428D02*
X204095237Y-106553809D01*
X204095237Y-106553809D02*
X204047618Y-106458571D01*
X204047618Y-106458571D02*
X203952380Y-106410952D01*
X203952380Y-106410952D02*
X203809523Y-106410952D01*
X203809523Y-106410952D02*
X203714285Y-106458571D01*
X203095237Y-107077619D02*
X203190475Y-107030000D01*
X203190475Y-107030000D02*
X203238094Y-106982380D01*
X203238094Y-106982380D02*
X203285713Y-106887142D01*
X203285713Y-106887142D02*
X203285713Y-106601428D01*
X203285713Y-106601428D02*
X203238094Y-106506190D01*
X203238094Y-106506190D02*
X203190475Y-106458571D01*
X203190475Y-106458571D02*
X203095237Y-106410952D01*
X203095237Y-106410952D02*
X202952380Y-106410952D01*
X202952380Y-106410952D02*
X202857142Y-106458571D01*
X202857142Y-106458571D02*
X202809523Y-106506190D01*
X202809523Y-106506190D02*
X202761904Y-106601428D01*
X202761904Y-106601428D02*
X202761904Y-106887142D01*
X202761904Y-106887142D02*
X202809523Y-106982380D01*
X202809523Y-106982380D02*
X202857142Y-107030000D01*
X202857142Y-107030000D02*
X202952380Y-107077619D01*
X202952380Y-107077619D02*
X203095237Y-107077619D01*
X202333332Y-107077619D02*
X202333332Y-106410952D01*
X202333332Y-106601428D02*
X202285713Y-106506190D01*
X202285713Y-106506190D02*
X202238094Y-106458571D01*
X202238094Y-106458571D02*
X202142856Y-106410952D01*
X202142856Y-106410952D02*
X202047618Y-106410952D01*
X200476189Y-106077619D02*
X200952379Y-106077619D01*
X200952379Y-106077619D02*
X200999998Y-106553809D01*
X200999998Y-106553809D02*
X200952379Y-106506190D01*
X200952379Y-106506190D02*
X200857141Y-106458571D01*
X200857141Y-106458571D02*
X200619046Y-106458571D01*
X200619046Y-106458571D02*
X200523808Y-106506190D01*
X200523808Y-106506190D02*
X200476189Y-106553809D01*
X200476189Y-106553809D02*
X200428570Y-106649047D01*
X200428570Y-106649047D02*
X200428570Y-106887142D01*
X200428570Y-106887142D02*
X200476189Y-106982380D01*
X200476189Y-106982380D02*
X200523808Y-107030000D01*
X200523808Y-107030000D02*
X200619046Y-107077619D01*
X200619046Y-107077619D02*
X200857141Y-107077619D01*
X200857141Y-107077619D02*
X200952379Y-107030000D01*
X200952379Y-107030000D02*
X200999998Y-106982380D01*
X182709523Y-108202095D02*
X182709523Y-107402095D01*
X182709523Y-107402095D02*
X182519047Y-107402095D01*
X182519047Y-107402095D02*
X182404761Y-107440190D01*
X182404761Y-107440190D02*
X182328571Y-107516380D01*
X182328571Y-107516380D02*
X182290476Y-107592571D01*
X182290476Y-107592571D02*
X182252380Y-107744952D01*
X182252380Y-107744952D02*
X182252380Y-107859238D01*
X182252380Y-107859238D02*
X182290476Y-108011619D01*
X182290476Y-108011619D02*
X182328571Y-108087809D01*
X182328571Y-108087809D02*
X182404761Y-108164000D01*
X182404761Y-108164000D02*
X182519047Y-108202095D01*
X182519047Y-108202095D02*
X182709523Y-108202095D01*
X181909523Y-108202095D02*
X181909523Y-107402095D01*
X181376190Y-107402095D02*
X181223809Y-107402095D01*
X181223809Y-107402095D02*
X181147619Y-107440190D01*
X181147619Y-107440190D02*
X181071428Y-107516380D01*
X181071428Y-107516380D02*
X181033333Y-107668761D01*
X181033333Y-107668761D02*
X181033333Y-107935428D01*
X181033333Y-107935428D02*
X181071428Y-108087809D01*
X181071428Y-108087809D02*
X181147619Y-108164000D01*
X181147619Y-108164000D02*
X181223809Y-108202095D01*
X181223809Y-108202095D02*
X181376190Y-108202095D01*
X181376190Y-108202095D02*
X181452381Y-108164000D01*
X181452381Y-108164000D02*
X181528571Y-108087809D01*
X181528571Y-108087809D02*
X181566667Y-107935428D01*
X181566667Y-107935428D02*
X181566667Y-107668761D01*
X181566667Y-107668761D02*
X181528571Y-107516380D01*
X181528571Y-107516380D02*
X181452381Y-107440190D01*
X181452381Y-107440190D02*
X181376190Y-107402095D01*
X197411428Y-117946190D02*
X197554285Y-117898571D01*
X197554285Y-117898571D02*
X197601904Y-117850952D01*
X197601904Y-117850952D02*
X197649523Y-117755714D01*
X197649523Y-117755714D02*
X197649523Y-117612857D01*
X197649523Y-117612857D02*
X197601904Y-117517619D01*
X197601904Y-117517619D02*
X197554285Y-117470000D01*
X197554285Y-117470000D02*
X197459047Y-117422380D01*
X197459047Y-117422380D02*
X197078095Y-117422380D01*
X197078095Y-117422380D02*
X197078095Y-118422380D01*
X197078095Y-118422380D02*
X197411428Y-118422380D01*
X197411428Y-118422380D02*
X197506666Y-118374761D01*
X197506666Y-118374761D02*
X197554285Y-118327142D01*
X197554285Y-118327142D02*
X197601904Y-118231904D01*
X197601904Y-118231904D02*
X197601904Y-118136666D01*
X197601904Y-118136666D02*
X197554285Y-118041428D01*
X197554285Y-118041428D02*
X197506666Y-117993809D01*
X197506666Y-117993809D02*
X197411428Y-117946190D01*
X197411428Y-117946190D02*
X197078095Y-117946190D01*
X198506666Y-117422380D02*
X198506666Y-117946190D01*
X198506666Y-117946190D02*
X198459047Y-118041428D01*
X198459047Y-118041428D02*
X198363809Y-118089047D01*
X198363809Y-118089047D02*
X198173333Y-118089047D01*
X198173333Y-118089047D02*
X198078095Y-118041428D01*
X198506666Y-117470000D02*
X198411428Y-117422380D01*
X198411428Y-117422380D02*
X198173333Y-117422380D01*
X198173333Y-117422380D02*
X198078095Y-117470000D01*
X198078095Y-117470000D02*
X198030476Y-117565238D01*
X198030476Y-117565238D02*
X198030476Y-117660476D01*
X198030476Y-117660476D02*
X198078095Y-117755714D01*
X198078095Y-117755714D02*
X198173333Y-117803333D01*
X198173333Y-117803333D02*
X198411428Y-117803333D01*
X198411428Y-117803333D02*
X198506666Y-117850952D01*
X198840000Y-118089047D02*
X199220952Y-118089047D01*
X198982857Y-118422380D02*
X198982857Y-117565238D01*
X198982857Y-117565238D02*
X199030476Y-117470000D01*
X199030476Y-117470000D02*
X199125714Y-117422380D01*
X199125714Y-117422380D02*
X199220952Y-117422380D01*
X199411429Y-118089047D02*
X199792381Y-118089047D01*
X199554286Y-118422380D02*
X199554286Y-117565238D01*
X199554286Y-117565238D02*
X199601905Y-117470000D01*
X199601905Y-117470000D02*
X199697143Y-117422380D01*
X199697143Y-117422380D02*
X199792381Y-117422380D01*
X202173334Y-118374761D02*
X202078096Y-118422380D01*
X202078096Y-118422380D02*
X201935239Y-118422380D01*
X201935239Y-118422380D02*
X201792382Y-118374761D01*
X201792382Y-118374761D02*
X201697144Y-118279523D01*
X201697144Y-118279523D02*
X201649525Y-118184285D01*
X201649525Y-118184285D02*
X201601906Y-117993809D01*
X201601906Y-117993809D02*
X201601906Y-117850952D01*
X201601906Y-117850952D02*
X201649525Y-117660476D01*
X201649525Y-117660476D02*
X201697144Y-117565238D01*
X201697144Y-117565238D02*
X201792382Y-117470000D01*
X201792382Y-117470000D02*
X201935239Y-117422380D01*
X201935239Y-117422380D02*
X202030477Y-117422380D01*
X202030477Y-117422380D02*
X202173334Y-117470000D01*
X202173334Y-117470000D02*
X202220953Y-117517619D01*
X202220953Y-117517619D02*
X202220953Y-117850952D01*
X202220953Y-117850952D02*
X202030477Y-117850952D01*
X202649525Y-118089047D02*
X202649525Y-117422380D01*
X202649525Y-117993809D02*
X202697144Y-118041428D01*
X202697144Y-118041428D02*
X202792382Y-118089047D01*
X202792382Y-118089047D02*
X202935239Y-118089047D01*
X202935239Y-118089047D02*
X203030477Y-118041428D01*
X203030477Y-118041428D02*
X203078096Y-117946190D01*
X203078096Y-117946190D02*
X203078096Y-117422380D01*
X203982858Y-117422380D02*
X203982858Y-118422380D01*
X203982858Y-117470000D02*
X203887620Y-117422380D01*
X203887620Y-117422380D02*
X203697144Y-117422380D01*
X203697144Y-117422380D02*
X203601906Y-117470000D01*
X203601906Y-117470000D02*
X203554287Y-117517619D01*
X203554287Y-117517619D02*
X203506668Y-117612857D01*
X203506668Y-117612857D02*
X203506668Y-117898571D01*
X203506668Y-117898571D02*
X203554287Y-117993809D01*
X203554287Y-117993809D02*
X203601906Y-118041428D01*
X203601906Y-118041428D02*
X203697144Y-118089047D01*
X203697144Y-118089047D02*
X203887620Y-118089047D01*
X203887620Y-118089047D02*
X203982858Y-118041428D01*
X168998571Y-112483809D02*
X168855714Y-112531428D01*
X168855714Y-112531428D02*
X168808095Y-112579047D01*
X168808095Y-112579047D02*
X168760476Y-112674285D01*
X168760476Y-112674285D02*
X168760476Y-112817142D01*
X168760476Y-112817142D02*
X168808095Y-112912380D01*
X168808095Y-112912380D02*
X168855714Y-112960000D01*
X168855714Y-112960000D02*
X168950952Y-113007619D01*
X168950952Y-113007619D02*
X169331904Y-113007619D01*
X169331904Y-113007619D02*
X169331904Y-112007619D01*
X169331904Y-112007619D02*
X168998571Y-112007619D01*
X168998571Y-112007619D02*
X168903333Y-112055238D01*
X168903333Y-112055238D02*
X168855714Y-112102857D01*
X168855714Y-112102857D02*
X168808095Y-112198095D01*
X168808095Y-112198095D02*
X168808095Y-112293333D01*
X168808095Y-112293333D02*
X168855714Y-112388571D01*
X168855714Y-112388571D02*
X168903333Y-112436190D01*
X168903333Y-112436190D02*
X168998571Y-112483809D01*
X168998571Y-112483809D02*
X169331904Y-112483809D01*
X167903333Y-113007619D02*
X167903333Y-112483809D01*
X167903333Y-112483809D02*
X167950952Y-112388571D01*
X167950952Y-112388571D02*
X168046190Y-112340952D01*
X168046190Y-112340952D02*
X168236666Y-112340952D01*
X168236666Y-112340952D02*
X168331904Y-112388571D01*
X167903333Y-112960000D02*
X167998571Y-113007619D01*
X167998571Y-113007619D02*
X168236666Y-113007619D01*
X168236666Y-113007619D02*
X168331904Y-112960000D01*
X168331904Y-112960000D02*
X168379523Y-112864761D01*
X168379523Y-112864761D02*
X168379523Y-112769523D01*
X168379523Y-112769523D02*
X168331904Y-112674285D01*
X168331904Y-112674285D02*
X168236666Y-112626666D01*
X168236666Y-112626666D02*
X167998571Y-112626666D01*
X167998571Y-112626666D02*
X167903333Y-112579047D01*
X167569999Y-112340952D02*
X167189047Y-112340952D01*
X167427142Y-112007619D02*
X167427142Y-112864761D01*
X167427142Y-112864761D02*
X167379523Y-112960000D01*
X167379523Y-112960000D02*
X167284285Y-113007619D01*
X167284285Y-113007619D02*
X167189047Y-113007619D01*
X166998570Y-112340952D02*
X166617618Y-112340952D01*
X166855713Y-112007619D02*
X166855713Y-112864761D01*
X166855713Y-112864761D02*
X166808094Y-112960000D01*
X166808094Y-112960000D02*
X166712856Y-113007619D01*
X166712856Y-113007619D02*
X166617618Y-113007619D01*
X165903332Y-112960000D02*
X165998570Y-113007619D01*
X165998570Y-113007619D02*
X166189046Y-113007619D01*
X166189046Y-113007619D02*
X166284284Y-112960000D01*
X166284284Y-112960000D02*
X166331903Y-112864761D01*
X166331903Y-112864761D02*
X166331903Y-112483809D01*
X166331903Y-112483809D02*
X166284284Y-112388571D01*
X166284284Y-112388571D02*
X166189046Y-112340952D01*
X166189046Y-112340952D02*
X165998570Y-112340952D01*
X165998570Y-112340952D02*
X165903332Y-112388571D01*
X165903332Y-112388571D02*
X165855713Y-112483809D01*
X165855713Y-112483809D02*
X165855713Y-112579047D01*
X165855713Y-112579047D02*
X166331903Y-112674285D01*
X165427141Y-113007619D02*
X165427141Y-112340952D01*
X165427141Y-112531428D02*
X165379522Y-112436190D01*
X165379522Y-112436190D02*
X165331903Y-112388571D01*
X165331903Y-112388571D02*
X165236665Y-112340952D01*
X165236665Y-112340952D02*
X165141427Y-112340952D01*
X164903331Y-112340952D02*
X164665236Y-113007619D01*
X164427141Y-112340952D02*
X164665236Y-113007619D01*
X164665236Y-113007619D02*
X164760474Y-113245714D01*
X164760474Y-113245714D02*
X164808093Y-113293333D01*
X164808093Y-113293333D02*
X164903331Y-113340952D01*
X188026190Y-115037619D02*
X188026190Y-115751904D01*
X188026190Y-115751904D02*
X188073809Y-115894761D01*
X188073809Y-115894761D02*
X188169047Y-115990000D01*
X188169047Y-115990000D02*
X188311904Y-116037619D01*
X188311904Y-116037619D02*
X188407142Y-116037619D01*
X187073809Y-116037619D02*
X187549999Y-116037619D01*
X187549999Y-116037619D02*
X187549999Y-115037619D01*
X186169047Y-115942380D02*
X186216666Y-115990000D01*
X186216666Y-115990000D02*
X186359523Y-116037619D01*
X186359523Y-116037619D02*
X186454761Y-116037619D01*
X186454761Y-116037619D02*
X186597618Y-115990000D01*
X186597618Y-115990000D02*
X186692856Y-115894761D01*
X186692856Y-115894761D02*
X186740475Y-115799523D01*
X186740475Y-115799523D02*
X186788094Y-115609047D01*
X186788094Y-115609047D02*
X186788094Y-115466190D01*
X186788094Y-115466190D02*
X186740475Y-115275714D01*
X186740475Y-115275714D02*
X186692856Y-115180476D01*
X186692856Y-115180476D02*
X186597618Y-115085238D01*
X186597618Y-115085238D02*
X186454761Y-115037619D01*
X186454761Y-115037619D02*
X186359523Y-115037619D01*
X186359523Y-115037619D02*
X186216666Y-115085238D01*
X186216666Y-115085238D02*
X186169047Y-115132857D01*
X185454761Y-115037619D02*
X185454761Y-115751904D01*
X185454761Y-115751904D02*
X185502380Y-115894761D01*
X185502380Y-115894761D02*
X185597618Y-115990000D01*
X185597618Y-115990000D02*
X185740475Y-116037619D01*
X185740475Y-116037619D02*
X185835713Y-116037619D01*
X184502380Y-116037619D02*
X184978570Y-116037619D01*
X184978570Y-116037619D02*
X184978570Y-115037619D01*
X183597618Y-115942380D02*
X183645237Y-115990000D01*
X183645237Y-115990000D02*
X183788094Y-116037619D01*
X183788094Y-116037619D02*
X183883332Y-116037619D01*
X183883332Y-116037619D02*
X184026189Y-115990000D01*
X184026189Y-115990000D02*
X184121427Y-115894761D01*
X184121427Y-115894761D02*
X184169046Y-115799523D01*
X184169046Y-115799523D02*
X184216665Y-115609047D01*
X184216665Y-115609047D02*
X184216665Y-115466190D01*
X184216665Y-115466190D02*
X184169046Y-115275714D01*
X184169046Y-115275714D02*
X184121427Y-115180476D01*
X184121427Y-115180476D02*
X184026189Y-115085238D01*
X184026189Y-115085238D02*
X183883332Y-115037619D01*
X183883332Y-115037619D02*
X183788094Y-115037619D01*
X183788094Y-115037619D02*
X183645237Y-115085238D01*
X183645237Y-115085238D02*
X183597618Y-115132857D01*
X182883332Y-115037619D02*
X182883332Y-115751904D01*
X182883332Y-115751904D02*
X182930951Y-115894761D01*
X182930951Y-115894761D02*
X183026189Y-115990000D01*
X183026189Y-115990000D02*
X183169046Y-116037619D01*
X183169046Y-116037619D02*
X183264284Y-116037619D01*
X181930951Y-116037619D02*
X182407141Y-116037619D01*
X182407141Y-116037619D02*
X182407141Y-115037619D01*
X181026189Y-115942380D02*
X181073808Y-115990000D01*
X181073808Y-115990000D02*
X181216665Y-116037619D01*
X181216665Y-116037619D02*
X181311903Y-116037619D01*
X181311903Y-116037619D02*
X181454760Y-115990000D01*
X181454760Y-115990000D02*
X181549998Y-115894761D01*
X181549998Y-115894761D02*
X181597617Y-115799523D01*
X181597617Y-115799523D02*
X181645236Y-115609047D01*
X181645236Y-115609047D02*
X181645236Y-115466190D01*
X181645236Y-115466190D02*
X181597617Y-115275714D01*
X181597617Y-115275714D02*
X181549998Y-115180476D01*
X181549998Y-115180476D02*
X181454760Y-115085238D01*
X181454760Y-115085238D02*
X181311903Y-115037619D01*
X181311903Y-115037619D02*
X181216665Y-115037619D01*
X181216665Y-115037619D02*
X181073808Y-115085238D01*
X181073808Y-115085238D02*
X181026189Y-115132857D01*
X180311903Y-115037619D02*
X180311903Y-115751904D01*
X180311903Y-115751904D02*
X180359522Y-115894761D01*
X180359522Y-115894761D02*
X180454760Y-115990000D01*
X180454760Y-115990000D02*
X180597617Y-116037619D01*
X180597617Y-116037619D02*
X180692855Y-116037619D01*
X179359522Y-116037619D02*
X179835712Y-116037619D01*
X179835712Y-116037619D02*
X179835712Y-115037619D01*
X178454760Y-115942380D02*
X178502379Y-115990000D01*
X178502379Y-115990000D02*
X178645236Y-116037619D01*
X178645236Y-116037619D02*
X178740474Y-116037619D01*
X178740474Y-116037619D02*
X178883331Y-115990000D01*
X178883331Y-115990000D02*
X178978569Y-115894761D01*
X178978569Y-115894761D02*
X179026188Y-115799523D01*
X179026188Y-115799523D02*
X179073807Y-115609047D01*
X179073807Y-115609047D02*
X179073807Y-115466190D01*
X179073807Y-115466190D02*
X179026188Y-115275714D01*
X179026188Y-115275714D02*
X178978569Y-115180476D01*
X178978569Y-115180476D02*
X178883331Y-115085238D01*
X178883331Y-115085238D02*
X178740474Y-115037619D01*
X178740474Y-115037619D02*
X178645236Y-115037619D01*
X178645236Y-115037619D02*
X178502379Y-115085238D01*
X178502379Y-115085238D02*
X178454760Y-115132857D01*
X136761904Y-109637619D02*
X136761904Y-108637619D01*
X136761904Y-108637619D02*
X136428571Y-109351904D01*
X136428571Y-109351904D02*
X136095238Y-108637619D01*
X136095238Y-108637619D02*
X136095238Y-109637619D01*
X135476190Y-109637619D02*
X135571428Y-109590000D01*
X135571428Y-109590000D02*
X135619047Y-109542380D01*
X135619047Y-109542380D02*
X135666666Y-109447142D01*
X135666666Y-109447142D02*
X135666666Y-109161428D01*
X135666666Y-109161428D02*
X135619047Y-109066190D01*
X135619047Y-109066190D02*
X135571428Y-109018571D01*
X135571428Y-109018571D02*
X135476190Y-108970952D01*
X135476190Y-108970952D02*
X135333333Y-108970952D01*
X135333333Y-108970952D02*
X135238095Y-109018571D01*
X135238095Y-109018571D02*
X135190476Y-109066190D01*
X135190476Y-109066190D02*
X135142857Y-109161428D01*
X135142857Y-109161428D02*
X135142857Y-109447142D01*
X135142857Y-109447142D02*
X135190476Y-109542380D01*
X135190476Y-109542380D02*
X135238095Y-109590000D01*
X135238095Y-109590000D02*
X135333333Y-109637619D01*
X135333333Y-109637619D02*
X135476190Y-109637619D01*
X134857142Y-108970952D02*
X134476190Y-108970952D01*
X134714285Y-108637619D02*
X134714285Y-109494761D01*
X134714285Y-109494761D02*
X134666666Y-109590000D01*
X134666666Y-109590000D02*
X134571428Y-109637619D01*
X134571428Y-109637619D02*
X134476190Y-109637619D01*
X133999999Y-109637619D02*
X134095237Y-109590000D01*
X134095237Y-109590000D02*
X134142856Y-109542380D01*
X134142856Y-109542380D02*
X134190475Y-109447142D01*
X134190475Y-109447142D02*
X134190475Y-109161428D01*
X134190475Y-109161428D02*
X134142856Y-109066190D01*
X134142856Y-109066190D02*
X134095237Y-109018571D01*
X134095237Y-109018571D02*
X133999999Y-108970952D01*
X133999999Y-108970952D02*
X133857142Y-108970952D01*
X133857142Y-108970952D02*
X133761904Y-109018571D01*
X133761904Y-109018571D02*
X133714285Y-109066190D01*
X133714285Y-109066190D02*
X133666666Y-109161428D01*
X133666666Y-109161428D02*
X133666666Y-109447142D01*
X133666666Y-109447142D02*
X133714285Y-109542380D01*
X133714285Y-109542380D02*
X133761904Y-109590000D01*
X133761904Y-109590000D02*
X133857142Y-109637619D01*
X133857142Y-109637619D02*
X133999999Y-109637619D01*
X133238094Y-109637619D02*
X133238094Y-108970952D01*
X133238094Y-109161428D02*
X133190475Y-109066190D01*
X133190475Y-109066190D02*
X133142856Y-109018571D01*
X133142856Y-109018571D02*
X133047618Y-108970952D01*
X133047618Y-108970952D02*
X132952380Y-108970952D01*
X136428571Y-110733809D02*
X136285714Y-110781428D01*
X136285714Y-110781428D02*
X136238095Y-110829047D01*
X136238095Y-110829047D02*
X136190476Y-110924285D01*
X136190476Y-110924285D02*
X136190476Y-111067142D01*
X136190476Y-111067142D02*
X136238095Y-111162380D01*
X136238095Y-111162380D02*
X136285714Y-111210000D01*
X136285714Y-111210000D02*
X136380952Y-111257619D01*
X136380952Y-111257619D02*
X136761904Y-111257619D01*
X136761904Y-111257619D02*
X136761904Y-110257619D01*
X136761904Y-110257619D02*
X136428571Y-110257619D01*
X136428571Y-110257619D02*
X136333333Y-110305238D01*
X136333333Y-110305238D02*
X136285714Y-110352857D01*
X136285714Y-110352857D02*
X136238095Y-110448095D01*
X136238095Y-110448095D02*
X136238095Y-110543333D01*
X136238095Y-110543333D02*
X136285714Y-110638571D01*
X136285714Y-110638571D02*
X136333333Y-110686190D01*
X136333333Y-110686190D02*
X136428571Y-110733809D01*
X136428571Y-110733809D02*
X136761904Y-110733809D01*
X135047619Y-110210000D02*
X135904761Y-111495714D01*
X134761904Y-110352857D02*
X134714285Y-110305238D01*
X134714285Y-110305238D02*
X134619047Y-110257619D01*
X134619047Y-110257619D02*
X134380952Y-110257619D01*
X134380952Y-110257619D02*
X134285714Y-110305238D01*
X134285714Y-110305238D02*
X134238095Y-110352857D01*
X134238095Y-110352857D02*
X134190476Y-110448095D01*
X134190476Y-110448095D02*
X134190476Y-110543333D01*
X134190476Y-110543333D02*
X134238095Y-110686190D01*
X134238095Y-110686190D02*
X134809523Y-111257619D01*
X134809523Y-111257619D02*
X134190476Y-111257619D01*
X135209523Y-107030000D02*
X135066666Y-107077619D01*
X135066666Y-107077619D02*
X134828571Y-107077619D01*
X134828571Y-107077619D02*
X134733333Y-107030000D01*
X134733333Y-107030000D02*
X134685714Y-106982380D01*
X134685714Y-106982380D02*
X134638095Y-106887142D01*
X134638095Y-106887142D02*
X134638095Y-106791904D01*
X134638095Y-106791904D02*
X134685714Y-106696666D01*
X134685714Y-106696666D02*
X134733333Y-106649047D01*
X134733333Y-106649047D02*
X134828571Y-106601428D01*
X134828571Y-106601428D02*
X135019047Y-106553809D01*
X135019047Y-106553809D02*
X135114285Y-106506190D01*
X135114285Y-106506190D02*
X135161904Y-106458571D01*
X135161904Y-106458571D02*
X135209523Y-106363333D01*
X135209523Y-106363333D02*
X135209523Y-106268095D01*
X135209523Y-106268095D02*
X135161904Y-106172857D01*
X135161904Y-106172857D02*
X135114285Y-106125238D01*
X135114285Y-106125238D02*
X135019047Y-106077619D01*
X135019047Y-106077619D02*
X134780952Y-106077619D01*
X134780952Y-106077619D02*
X134638095Y-106125238D01*
X133828571Y-107030000D02*
X133923809Y-107077619D01*
X133923809Y-107077619D02*
X134114285Y-107077619D01*
X134114285Y-107077619D02*
X134209523Y-107030000D01*
X134209523Y-107030000D02*
X134257142Y-106934761D01*
X134257142Y-106934761D02*
X134257142Y-106553809D01*
X134257142Y-106553809D02*
X134209523Y-106458571D01*
X134209523Y-106458571D02*
X134114285Y-106410952D01*
X134114285Y-106410952D02*
X133923809Y-106410952D01*
X133923809Y-106410952D02*
X133828571Y-106458571D01*
X133828571Y-106458571D02*
X133780952Y-106553809D01*
X133780952Y-106553809D02*
X133780952Y-106649047D01*
X133780952Y-106649047D02*
X134257142Y-106744285D01*
X133352380Y-106410952D02*
X133352380Y-107077619D01*
X133352380Y-106506190D02*
X133304761Y-106458571D01*
X133304761Y-106458571D02*
X133209523Y-106410952D01*
X133209523Y-106410952D02*
X133066666Y-106410952D01*
X133066666Y-106410952D02*
X132971428Y-106458571D01*
X132971428Y-106458571D02*
X132923809Y-106553809D01*
X132923809Y-106553809D02*
X132923809Y-107077619D01*
X132495237Y-107030000D02*
X132399999Y-107077619D01*
X132399999Y-107077619D02*
X132209523Y-107077619D01*
X132209523Y-107077619D02*
X132114285Y-107030000D01*
X132114285Y-107030000D02*
X132066666Y-106934761D01*
X132066666Y-106934761D02*
X132066666Y-106887142D01*
X132066666Y-106887142D02*
X132114285Y-106791904D01*
X132114285Y-106791904D02*
X132209523Y-106744285D01*
X132209523Y-106744285D02*
X132352380Y-106744285D01*
X132352380Y-106744285D02*
X132447618Y-106696666D01*
X132447618Y-106696666D02*
X132495237Y-106601428D01*
X132495237Y-106601428D02*
X132495237Y-106553809D01*
X132495237Y-106553809D02*
X132447618Y-106458571D01*
X132447618Y-106458571D02*
X132352380Y-106410952D01*
X132352380Y-106410952D02*
X132209523Y-106410952D01*
X132209523Y-106410952D02*
X132114285Y-106458571D01*
X131495237Y-107077619D02*
X131590475Y-107030000D01*
X131590475Y-107030000D02*
X131638094Y-106982380D01*
X131638094Y-106982380D02*
X131685713Y-106887142D01*
X131685713Y-106887142D02*
X131685713Y-106601428D01*
X131685713Y-106601428D02*
X131638094Y-106506190D01*
X131638094Y-106506190D02*
X131590475Y-106458571D01*
X131590475Y-106458571D02*
X131495237Y-106410952D01*
X131495237Y-106410952D02*
X131352380Y-106410952D01*
X131352380Y-106410952D02*
X131257142Y-106458571D01*
X131257142Y-106458571D02*
X131209523Y-106506190D01*
X131209523Y-106506190D02*
X131161904Y-106601428D01*
X131161904Y-106601428D02*
X131161904Y-106887142D01*
X131161904Y-106887142D02*
X131209523Y-106982380D01*
X131209523Y-106982380D02*
X131257142Y-107030000D01*
X131257142Y-107030000D02*
X131352380Y-107077619D01*
X131352380Y-107077619D02*
X131495237Y-107077619D01*
X130733332Y-107077619D02*
X130733332Y-106410952D01*
X130733332Y-106601428D02*
X130685713Y-106506190D01*
X130685713Y-106506190D02*
X130638094Y-106458571D01*
X130638094Y-106458571D02*
X130542856Y-106410952D01*
X130542856Y-106410952D02*
X130447618Y-106410952D01*
X129399998Y-106172857D02*
X129352379Y-106125238D01*
X129352379Y-106125238D02*
X129257141Y-106077619D01*
X129257141Y-106077619D02*
X129019046Y-106077619D01*
X129019046Y-106077619D02*
X128923808Y-106125238D01*
X128923808Y-106125238D02*
X128876189Y-106172857D01*
X128876189Y-106172857D02*
X128828570Y-106268095D01*
X128828570Y-106268095D02*
X128828570Y-106363333D01*
X128828570Y-106363333D02*
X128876189Y-106506190D01*
X128876189Y-106506190D02*
X129447617Y-107077619D01*
X129447617Y-107077619D02*
X128828570Y-107077619D01*
X160761904Y-107903333D02*
X160000000Y-107903333D01*
X187790476Y-107440190D02*
X187866666Y-107402095D01*
X187866666Y-107402095D02*
X187980952Y-107402095D01*
X187980952Y-107402095D02*
X188095238Y-107440190D01*
X188095238Y-107440190D02*
X188171428Y-107516380D01*
X188171428Y-107516380D02*
X188209523Y-107592571D01*
X188209523Y-107592571D02*
X188247619Y-107744952D01*
X188247619Y-107744952D02*
X188247619Y-107859238D01*
X188247619Y-107859238D02*
X188209523Y-108011619D01*
X188209523Y-108011619D02*
X188171428Y-108087809D01*
X188171428Y-108087809D02*
X188095238Y-108164000D01*
X188095238Y-108164000D02*
X187980952Y-108202095D01*
X187980952Y-108202095D02*
X187904761Y-108202095D01*
X187904761Y-108202095D02*
X187790476Y-108164000D01*
X187790476Y-108164000D02*
X187752380Y-108125904D01*
X187752380Y-108125904D02*
X187752380Y-107859238D01*
X187752380Y-107859238D02*
X187904761Y-107859238D01*
X187409523Y-108202095D02*
X187409523Y-107402095D01*
X187409523Y-107402095D02*
X186952380Y-108202095D01*
X186952380Y-108202095D02*
X186952380Y-107402095D01*
X186571428Y-108202095D02*
X186571428Y-107402095D01*
X186571428Y-107402095D02*
X186380952Y-107402095D01*
X186380952Y-107402095D02*
X186266666Y-107440190D01*
X186266666Y-107440190D02*
X186190476Y-107516380D01*
X186190476Y-107516380D02*
X186152381Y-107592571D01*
X186152381Y-107592571D02*
X186114285Y-107744952D01*
X186114285Y-107744952D02*
X186114285Y-107859238D01*
X186114285Y-107859238D02*
X186152381Y-108011619D01*
X186152381Y-108011619D02*
X186190476Y-108087809D01*
X186190476Y-108087809D02*
X186266666Y-108164000D01*
X186266666Y-108164000D02*
X186380952Y-108202095D01*
X186380952Y-108202095D02*
X186571428Y-108202095D01*
X163261904Y-107903333D02*
X162500000Y-107903333D01*
X162880952Y-107522380D02*
X162880952Y-108284285D01*
D11*
X197120000Y-116520000D02*
X195870000Y-116520000D01*
X192100000Y-116220000D02*
X192100000Y-108100000D01*
X194210000Y-116220000D02*
X194210000Y-115610000D01*
X195510000Y-116220000D02*
X195510000Y-115610000D01*
X196820000Y-116220000D02*
X192100000Y-116220000D01*
X192710000Y-115610000D02*
X192710000Y-108710000D01*
X196210000Y-115610000D02*
X192710000Y-115610000D01*
X197120000Y-115270000D02*
X197120000Y-116520000D01*
X197020000Y-114760000D02*
X196820000Y-114760000D01*
X196820000Y-114460000D02*
X197020000Y-114460000D01*
X196920000Y-114460000D02*
X196920000Y-114760000D01*
X197020000Y-114460000D02*
X197020000Y-114760000D01*
X196210000Y-113660000D02*
X196210000Y-115610000D01*
X196820000Y-113660000D02*
X196210000Y-113660000D01*
X192710000Y-113260000D02*
X193210000Y-113260000D01*
X193210000Y-113260000D02*
X193210000Y-113060000D01*
X192710000Y-113160000D02*
X193210000Y-113160000D01*
X193210000Y-113060000D02*
X192710000Y-113060000D01*
X192710000Y-111260000D02*
X193210000Y-111260000D01*
X193210000Y-111260000D02*
X193210000Y-111060000D01*
X192710000Y-111160000D02*
X193210000Y-111160000D01*
X193210000Y-111060000D02*
X192710000Y-111060000D01*
X196210000Y-110660000D02*
X196820000Y-110660000D01*
X192710000Y-108710000D02*
X196210000Y-108710000D01*
X196210000Y-108710000D02*
X196210000Y-110660000D01*
X192100000Y-108100000D02*
X196820000Y-108100000D01*
X194210000Y-108100000D02*
X194210000Y-108710000D01*
X195510000Y-108100000D02*
X195510000Y-108710000D01*
X196820000Y-108100000D02*
X196820000Y-116220000D01*
X142190000Y-116600000D02*
X140940000Y-116600000D01*
X137170000Y-116300000D02*
X137170000Y-108180000D01*
X139280000Y-116300000D02*
X139280000Y-115690000D01*
X140580000Y-116300000D02*
X140580000Y-115690000D01*
X141890000Y-116300000D02*
X137170000Y-116300000D01*
X137780000Y-115690000D02*
X137780000Y-108790000D01*
X141280000Y-115690000D02*
X137780000Y-115690000D01*
X142190000Y-115350000D02*
X142190000Y-116600000D01*
X142090000Y-114840000D02*
X141890000Y-114840000D01*
X141890000Y-114540000D02*
X142090000Y-114540000D01*
X141990000Y-114540000D02*
X141990000Y-114840000D01*
X142090000Y-114540000D02*
X142090000Y-114840000D01*
X141280000Y-113740000D02*
X141280000Y-115690000D01*
X141890000Y-113740000D02*
X141280000Y-113740000D01*
X137780000Y-113340000D02*
X138280000Y-113340000D01*
X138280000Y-113340000D02*
X138280000Y-113140000D01*
X137780000Y-113240000D02*
X138280000Y-113240000D01*
X138280000Y-113140000D02*
X137780000Y-113140000D01*
X137780000Y-111340000D02*
X138280000Y-111340000D01*
X138280000Y-111340000D02*
X138280000Y-111140000D01*
X137780000Y-111240000D02*
X138280000Y-111240000D01*
X138280000Y-111140000D02*
X137780000Y-111140000D01*
X141280000Y-110740000D02*
X141890000Y-110740000D01*
X137780000Y-108790000D02*
X141280000Y-108790000D01*
X141280000Y-108790000D02*
X141280000Y-110740000D01*
X137170000Y-108180000D02*
X141890000Y-108180000D01*
X139280000Y-108180000D02*
X139280000Y-108790000D01*
X140580000Y-108180000D02*
X140580000Y-108790000D01*
X141890000Y-108180000D02*
X141890000Y-116300000D01*
%LPC*%
D12*
X134700000Y-114860000D03*
D13*
X134700000Y-117400000D03*
X132160000Y-114860000D03*
X132160000Y-117400000D03*
X129620000Y-114860000D03*
X129620000Y-117400000D03*
D14*
X201700000Y-104600000D03*
D15*
X203700000Y-104600000D03*
X205700000Y-104600000D03*
D12*
X160390000Y-106110000D03*
D13*
X162930000Y-106110000D03*
X165470000Y-106110000D03*
X168010000Y-106110000D03*
X170550000Y-106110000D03*
X173090000Y-106110000D03*
X175630000Y-106110000D03*
D12*
X179570000Y-106190000D03*
D13*
X182110000Y-106190000D03*
X184650000Y-106190000D03*
X187190000Y-106190000D03*
D14*
X130100000Y-104500000D03*
D15*
X132100000Y-104500000D03*
X134100000Y-104500000D03*
D14*
X198590000Y-115960000D03*
D15*
X200590000Y-115960000D03*
X202590000Y-115960000D03*
D16*
X195010000Y-114160000D03*
D17*
X195010000Y-112160000D03*
X195010000Y-110160000D03*
D16*
X140080000Y-114240000D03*
D17*
X140080000Y-112240000D03*
X140080000Y-110240000D03*
%LPD*%
M02*
