M48
; DRILL file {KiCad 7.0.2-0} date 2024 January 02, Tuesday 14:27:23
; FORMAT={-:-/ absolute / metric / decimal}
; #@! TF.CreationDate,2024-01-02T14:27:23-05:00
; #@! TF.GenerationSoftware,Kicad,Pcbnew,7.0.2-0
; #@! TF.FileFunction,Plated,1,4,PTH
FMAT,2
METRIC
; #@! TA.AperFunction,Plated,PTH,ViaDrill
T1C0.300
; #@! TA.AperFunction,Plated,PTH,ViaDrill
T2C0.400
; #@! TA.AperFunction,Plated,PTH,ComponentDrill
T3C0.750
; #@! TA.AperFunction,Plated,PTH,ComponentDrill
T4C1.000
%
G90
G05
T1
X142.92Y-113.21
X143.12Y-116.0
X143.88Y-110.05
X143.88Y-112.26
X145.07Y-112.63
X145.44Y-114.4
X145.56Y-118.22
X146.6Y-109.47
X146.98Y-114.39
X147.18Y-118.21
X147.75Y-111.3
X147.84Y-112.99
X148.0Y-113.85
X148.38Y-111.87
X148.43Y-110.55
X148.73Y-118.22
X150.13Y-116.04
X151.66Y-109.96
X151.757Y-117.767
X152.317Y-116.017
X153.347Y-114.667
X153.868Y-110.108
X154.827Y-110.117
X155.43Y-116.51
X156.51Y-116.93
X157.39Y-117.63
X157.66Y-114.25
X157.82Y-112.36
X157.88Y-115.87
X158.51Y-111.88
X158.51Y-114.54
X159.03Y-113.72
X159.17Y-107.45
X159.19Y-111.3
X159.34Y-112.7
X159.42Y-116.28
X161.11Y-113.96
X161.12Y-113.13
X161.4Y-111.5
X161.82Y-114.79
X161.95Y-113.91
X162.42Y-110.46
X162.54Y-115.54
X162.73Y-114.66
X163.235Y-116.215
X163.35Y-115.42
X164.46Y-117.242
X165.99Y-117.843
X166.61Y-114.96
X168.18Y-117.5
X168.782Y-110.392
X169.05Y-117.52
X169.12Y-113.95
X169.31Y-118.48
X170.093Y-110.432
X170.1Y-114.76
X170.87Y-118.62
X170.955Y-113.355
X171.04Y-110.69
X171.99Y-113.32
X172.01Y-118.6
X172.9Y-113.29
X173.01Y-110.69
X173.29Y-118.14
X173.92Y-113.29
X173.992Y-110.442
X175.282Y-110.382
X176.34Y-118.33
X176.72Y-117.3
X181.067Y-113.04
X181.067Y-114.19
X183.617Y-111.74
X184.517Y-111.74
X185.567Y-111.74
X186.517Y-111.74
X187.248Y-117.39
X190.6Y-115.7
T2
X191.5Y-109.9
T3
X130.1Y-104.5
X132.1Y-104.5
X134.1Y-104.5
X140.08Y-110.24
X140.08Y-112.24
X140.08Y-114.24
X195.01Y-110.16
X195.01Y-112.16
X195.01Y-114.16
X198.59Y-115.96
X200.59Y-115.96
X201.7Y-104.6
X202.59Y-115.96
X203.7Y-104.6
X205.7Y-104.6
T4
X129.62Y-114.86
X129.62Y-117.4
X132.16Y-114.86
X132.16Y-117.4
X134.7Y-114.86
X134.7Y-117.4
X160.39Y-106.11
X162.93Y-106.11
X165.47Y-106.11
X168.01Y-106.11
X170.55Y-106.11
X173.09Y-106.11
X175.63Y-106.11
X179.57Y-106.19
X182.11Y-106.19
X184.65Y-106.19
X187.19Y-106.19
T0
M30
