G04 #@! TF.GenerationSoftware,KiCad,Pcbnew,7.0.2-0*
G04 #@! TF.CreationDate,2024-01-02T14:26:46-05:00*
G04 #@! TF.ProjectId,GTV,4754562e-6b69-4636-9164-5f7063625858,rev?*
G04 #@! TF.SameCoordinates,Original*
G04 #@! TF.FileFunction,Paste,Top*
G04 #@! TF.FilePolarity,Positive*
%FSLAX46Y46*%
G04 Gerber Fmt 4.6, Leading zero omitted, Abs format (unit mm)*
G04 Created by KiCad (PCBNEW 7.0.2-0) date 2024-01-02 14:26:46*
%MOMM*%
%LPD*%
G01*
G04 APERTURE LIST*
G04 Aperture macros list*
%AMRoundRect*
0 Rectangle with rounded corners*
0 $1 Rounding radius*
0 $2 $3 $4 $5 $6 $7 $8 $9 X,Y pos of 4 corners*
0 Add a 4 corners polygon primitive as box body*
4,1,4,$2,$3,$4,$5,$6,$7,$8,$9,$2,$3,0*
0 Add four circle primitives for the rounded corners*
1,1,$1+$1,$2,$3*
1,1,$1+$1,$4,$5*
1,1,$1+$1,$6,$7*
1,1,$1+$1,$8,$9*
0 Add four rect primitives between the rounded corners*
20,1,$1+$1,$2,$3,$4,$5,0*
20,1,$1+$1,$4,$5,$6,$7,0*
20,1,$1+$1,$6,$7,$8,$9,0*
20,1,$1+$1,$8,$9,$2,$3,0*%
G04 Aperture macros list end*
%ADD10RoundRect,0.140000X-0.140000X-0.170000X0.140000X-0.170000X0.140000X0.170000X-0.140000X0.170000X0*%
%ADD11RoundRect,0.135000X0.185000X-0.135000X0.185000X0.135000X-0.185000X0.135000X-0.185000X-0.135000X0*%
%ADD12R,1.200000X1.400000*%
%ADD13RoundRect,0.225000X0.225000X0.250000X-0.225000X0.250000X-0.225000X-0.250000X0.225000X-0.250000X0*%
%ADD14RoundRect,0.150000X0.512500X0.150000X-0.512500X0.150000X-0.512500X-0.150000X0.512500X-0.150000X0*%
%ADD15RoundRect,0.250000X-0.250000X-0.475000X0.250000X-0.475000X0.250000X0.475000X-0.250000X0.475000X0*%
%ADD16RoundRect,0.075000X-0.662500X-0.075000X0.662500X-0.075000X0.662500X0.075000X-0.662500X0.075000X0*%
%ADD17RoundRect,0.075000X-0.075000X-0.662500X0.075000X-0.662500X0.075000X0.662500X-0.075000X0.662500X0*%
%ADD18RoundRect,0.140000X0.140000X0.170000X-0.140000X0.170000X-0.140000X-0.170000X0.140000X-0.170000X0*%
%ADD19R,0.450000X1.750000*%
%ADD20RoundRect,0.140000X0.170000X-0.140000X0.170000X0.140000X-0.170000X0.140000X-0.170000X-0.140000X0*%
%ADD21RoundRect,0.250000X0.250000X0.475000X-0.250000X0.475000X-0.250000X-0.475000X0.250000X-0.475000X0*%
%ADD22RoundRect,0.135000X-0.185000X0.135000X-0.185000X-0.135000X0.185000X-0.135000X0.185000X0.135000X0*%
%ADD23RoundRect,0.218750X0.256250X-0.218750X0.256250X0.218750X-0.256250X0.218750X-0.256250X-0.218750X0*%
%ADD24RoundRect,0.218750X0.218750X0.381250X-0.218750X0.381250X-0.218750X-0.381250X0.218750X-0.381250X0*%
%ADD25R,1.100000X3.700000*%
%ADD26R,0.350000X0.375000*%
%ADD27R,0.375000X0.350000*%
%ADD28RoundRect,0.135000X-0.135000X-0.185000X0.135000X-0.185000X0.135000X0.185000X-0.135000X0.185000X0*%
%ADD29RoundRect,0.225000X-0.225000X-0.250000X0.225000X-0.250000X0.225000X0.250000X-0.225000X0.250000X0*%
%ADD30RoundRect,0.140000X-0.170000X0.140000X-0.170000X-0.140000X0.170000X-0.140000X0.170000X0.140000X0*%
G04 APERTURE END LIST*
D10*
X164450000Y-117832500D03*
X165410000Y-117832500D03*
D11*
X142920000Y-115410000D03*
X142920000Y-114390000D03*
D12*
X149750000Y-111600000D03*
X149750000Y-113800000D03*
X151450000Y-113800000D03*
X151450000Y-111600000D03*
D13*
X154845000Y-109112500D03*
X153295000Y-109112500D03*
D14*
X187245000Y-116710000D03*
X187245000Y-115760000D03*
X187245000Y-114810000D03*
X184970000Y-114810000D03*
X184970000Y-115760000D03*
X184970000Y-116710000D03*
D15*
X182267500Y-112850000D03*
X184167500Y-112850000D03*
D16*
X156507500Y-110692500D03*
X156507500Y-111192500D03*
X156507500Y-111692500D03*
X156507500Y-112192500D03*
X156507500Y-112692500D03*
X156507500Y-113192500D03*
X156507500Y-113692500D03*
X156507500Y-114192500D03*
X156507500Y-114692500D03*
X156507500Y-115192500D03*
X156507500Y-115692500D03*
X156507500Y-116192500D03*
D17*
X157920000Y-117605000D03*
X158420000Y-117605000D03*
X158920000Y-117605000D03*
X159420000Y-117605000D03*
X159920000Y-117605000D03*
X160420000Y-117605000D03*
X160920000Y-117605000D03*
X161420000Y-117605000D03*
X161920000Y-117605000D03*
X162420000Y-117605000D03*
X162920000Y-117605000D03*
X163420000Y-117605000D03*
D16*
X164832500Y-116192500D03*
X164832500Y-115692500D03*
X164832500Y-115192500D03*
X164832500Y-114692500D03*
X164832500Y-114192500D03*
X164832500Y-113692500D03*
X164832500Y-113192500D03*
X164832500Y-112692500D03*
X164832500Y-112192500D03*
X164832500Y-111692500D03*
X164832500Y-111192500D03*
X164832500Y-110692500D03*
D17*
X163420000Y-109280000D03*
X162920000Y-109280000D03*
X162420000Y-109280000D03*
X161920000Y-109280000D03*
X161420000Y-109280000D03*
X160920000Y-109280000D03*
X160420000Y-109280000D03*
X159920000Y-109280000D03*
X159420000Y-109280000D03*
X158920000Y-109280000D03*
X158420000Y-109280000D03*
X157920000Y-109280000D03*
D18*
X151090000Y-115440000D03*
X150130000Y-115440000D03*
D19*
X175617500Y-109092500D03*
X174967500Y-109092500D03*
X174317500Y-109092500D03*
X173667500Y-109092500D03*
X173017500Y-109092500D03*
X172367500Y-109092500D03*
X171717500Y-109092500D03*
X171067500Y-109092500D03*
X170417500Y-109092500D03*
X169767500Y-109092500D03*
X169117500Y-109092500D03*
X168467500Y-109092500D03*
X168467500Y-116292500D03*
X169117500Y-116292500D03*
X169767500Y-116292500D03*
X170417500Y-116292500D03*
X171067500Y-116292500D03*
X171717500Y-116292500D03*
X172367500Y-116292500D03*
X173017500Y-116292500D03*
X173667500Y-116292500D03*
X174317500Y-116292500D03*
X174967500Y-116292500D03*
X175617500Y-116292500D03*
D10*
X145070000Y-109460000D03*
X146030000Y-109460000D03*
D20*
X143880000Y-111570000D03*
X143880000Y-110610000D03*
D21*
X187917500Y-112850000D03*
X186017500Y-112850000D03*
D20*
X156230000Y-109402500D03*
X156230000Y-108442500D03*
D13*
X168535000Y-118310000D03*
X166985000Y-118310000D03*
D22*
X146370000Y-114390000D03*
X146370000Y-115410000D03*
D10*
X150130000Y-109960000D03*
X151090000Y-109960000D03*
D13*
X154602500Y-116027500D03*
X153052500Y-116027500D03*
D10*
X184527500Y-118160000D03*
X185487500Y-118160000D03*
D18*
X172740000Y-118040000D03*
X171780000Y-118040000D03*
D23*
X144750000Y-118217500D03*
X144750000Y-116642500D03*
D18*
X154867500Y-114687500D03*
X153907500Y-114687500D03*
D24*
X154620000Y-117777500D03*
X152495000Y-117777500D03*
D23*
X146370000Y-118215000D03*
X146370000Y-116640000D03*
X147990000Y-118215000D03*
X147990000Y-116640000D03*
D22*
X147990000Y-114400000D03*
X147990000Y-115420000D03*
D25*
X182897500Y-116400000D03*
X179897500Y-116400000D03*
D26*
X146560000Y-110547500D03*
X146060000Y-110547500D03*
X145560000Y-110547500D03*
X145060000Y-110547500D03*
D27*
X145047500Y-111060000D03*
X145047500Y-111560000D03*
D26*
X145060000Y-112072500D03*
X145560000Y-112072500D03*
X146060000Y-112072500D03*
X146560000Y-112072500D03*
D27*
X146572500Y-111560000D03*
X146572500Y-111060000D03*
D18*
X154827500Y-110697500D03*
X153867500Y-110697500D03*
D28*
X191390000Y-111000000D03*
X192410000Y-111000000D03*
D22*
X144750000Y-114400000D03*
X144750000Y-115420000D03*
D11*
X192500000Y-109810000D03*
X192500000Y-108790000D03*
D10*
X169790000Y-118040000D03*
X170750000Y-118040000D03*
D29*
X174005000Y-118320000D03*
X175555000Y-118320000D03*
D30*
X156050000Y-117390000D03*
X156050000Y-118350000D03*
M02*
